<mxfile host="app.diagrams.net" modified="2022-06-29T11:55:23.581Z" agent="5.0 (X11; Linux x86_64) AppleWebKit/537.36 (KHTML, like Gecko) Chrome/103.0.5060.53 Safari/537.36 Edg/103.0.1264.37" etag="SfxyA3e5qi7IeIMf27D9" version="20.0.3" type="github">
  <diagram id="fFO03emj91WZiigiMA-z" name="第 1 页">
    <mxGraphModel dx="731" dy="397" grid="1" gridSize="10" guides="1" tooltips="1" connect="1" arrows="1" fold="1" page="1" pageScale="1" pageWidth="827" pageHeight="1169" math="1" shadow="0">
      <root>
        <mxCell id="0" />
        <mxCell id="1" parent="0" />
        <mxCell id="MKG76FOPYPv3-6Rtzddx-26" value="" style="rounded=1;whiteSpace=wrap;html=1;dashed=1;flipH=1;flipV=1;labelBackgroundColor=none;" vertex="1" parent="1">
          <mxGeometry x="40" y="70" width="560" height="210" as="geometry" />
        </mxCell>
        <mxCell id="MKG76FOPYPv3-6Rtzddx-1" value="" style="endArrow=classic;html=1;rounded=0;" edge="1" parent="1">
          <mxGeometry width="50" height="50" relative="1" as="geometry">
            <mxPoint x="80" y="240" as="sourcePoint" />
            <mxPoint x="560" y="240" as="targetPoint" />
          </mxGeometry>
        </mxCell>
        <mxCell id="MKG76FOPYPv3-6Rtzddx-13" style="edgeStyle=orthogonalEdgeStyle;rounded=0;orthogonalLoop=1;jettySize=auto;html=1;exitX=1;exitY=0.5;exitDx=0;exitDy=0;" edge="1" parent="1" source="MKG76FOPYPv3-6Rtzddx-2" target="MKG76FOPYPv3-6Rtzddx-11">
          <mxGeometry relative="1" as="geometry">
            <Array as="points">
              <mxPoint x="225" y="160" />
            </Array>
          </mxGeometry>
        </mxCell>
        <mxCell id="MKG76FOPYPv3-6Rtzddx-2" value="&lt;font color=&quot;#ffffff&quot; style=&quot;font-size: 14px;&quot;&gt;RFDB&lt;/font&gt;" style="rounded=1;whiteSpace=wrap;html=1;fillColor=#b1ddf0;strokeColor=#10739e;fontSize=14;" vertex="1" parent="1">
          <mxGeometry x="120" y="140" width="90" height="40" as="geometry" />
        </mxCell>
        <mxCell id="MKG76FOPYPv3-6Rtzddx-17" style="edgeStyle=orthogonalEdgeStyle;rounded=0;orthogonalLoop=1;jettySize=auto;html=1;entryX=0.5;entryY=0;entryDx=0;entryDy=0;" edge="1" parent="1" source="MKG76FOPYPv3-6Rtzddx-3" target="MKG76FOPYPv3-6Rtzddx-16">
          <mxGeometry relative="1" as="geometry">
            <Array as="points">
              <mxPoint x="375" y="160" />
            </Array>
          </mxGeometry>
        </mxCell>
        <mxCell id="MKG76FOPYPv3-6Rtzddx-3" value="&lt;font color=&quot;#ffffff&quot; style=&quot;font-size: 14px;&quot;&gt;RFDB&lt;/font&gt;" style="rounded=1;whiteSpace=wrap;html=1;fillColor=#b1ddf0;strokeColor=#10739e;fontSize=14;" vertex="1" parent="1">
          <mxGeometry x="270" y="140" width="90" height="40" as="geometry" />
        </mxCell>
        <mxCell id="MKG76FOPYPv3-6Rtzddx-19" style="edgeStyle=orthogonalEdgeStyle;rounded=0;orthogonalLoop=1;jettySize=auto;html=1;entryX=0.5;entryY=0;entryDx=0;entryDy=0;" edge="1" parent="1" source="MKG76FOPYPv3-6Rtzddx-5" target="MKG76FOPYPv3-6Rtzddx-15">
          <mxGeometry relative="1" as="geometry">
            <Array as="points">
              <mxPoint x="525" y="160" />
            </Array>
          </mxGeometry>
        </mxCell>
        <mxCell id="MKG76FOPYPv3-6Rtzddx-5" value="&lt;font color=&quot;#ffffff&quot; style=&quot;font-size: 14px;&quot;&gt;RFDB&lt;/font&gt;" style="rounded=1;whiteSpace=wrap;html=1;fillColor=#b1ddf0;strokeColor=#10739e;fontSize=14;" vertex="1" parent="1">
          <mxGeometry x="420" y="140" width="90" height="40" as="geometry" />
        </mxCell>
        <mxCell id="MKG76FOPYPv3-6Rtzddx-6" value="" style="endArrow=classic;html=1;rounded=0;entryX=0;entryY=0.5;entryDx=0;entryDy=0;" edge="1" parent="1" target="MKG76FOPYPv3-6Rtzddx-2">
          <mxGeometry width="50" height="50" relative="1" as="geometry">
            <mxPoint x="100" y="240" as="sourcePoint" />
            <mxPoint x="100" y="160" as="targetPoint" />
            <Array as="points">
              <mxPoint x="100" y="160" />
            </Array>
          </mxGeometry>
        </mxCell>
        <mxCell id="MKG76FOPYPv3-6Rtzddx-14" style="edgeStyle=orthogonalEdgeStyle;rounded=0;orthogonalLoop=1;jettySize=auto;html=1;" edge="1" parent="1" source="MKG76FOPYPv3-6Rtzddx-11">
          <mxGeometry relative="1" as="geometry">
            <mxPoint x="225" y="240" as="targetPoint" />
          </mxGeometry>
        </mxCell>
        <mxCell id="MKG76FOPYPv3-6Rtzddx-11" value="&lt;font color=&quot;#ffffff&quot;&gt;$$\alpha$$&lt;/font&gt;" style="rounded=1;whiteSpace=wrap;html=1;fillColor=#ffcc99;strokeColor=#36393d;fontSize=14;arcSize=0;" vertex="1" parent="1">
          <mxGeometry x="210" y="200" width="30" height="20" as="geometry" />
        </mxCell>
        <mxCell id="MKG76FOPYPv3-6Rtzddx-20" style="edgeStyle=orthogonalEdgeStyle;rounded=0;orthogonalLoop=1;jettySize=auto;html=1;exitX=0.5;exitY=1;exitDx=0;exitDy=0;" edge="1" parent="1" source="MKG76FOPYPv3-6Rtzddx-15">
          <mxGeometry relative="1" as="geometry">
            <mxPoint x="525" y="240" as="targetPoint" />
          </mxGeometry>
        </mxCell>
        <mxCell id="MKG76FOPYPv3-6Rtzddx-15" value="&lt;font color=&quot;#ffffff&quot;&gt;$$\alpha$$&lt;/font&gt;" style="rounded=1;whiteSpace=wrap;html=1;fillColor=#ffcc99;strokeColor=#36393d;fontSize=14;arcSize=0;" vertex="1" parent="1">
          <mxGeometry x="510" y="200" width="30" height="20" as="geometry" />
        </mxCell>
        <mxCell id="MKG76FOPYPv3-6Rtzddx-18" style="edgeStyle=orthogonalEdgeStyle;rounded=0;orthogonalLoop=1;jettySize=auto;html=1;" edge="1" parent="1" source="MKG76FOPYPv3-6Rtzddx-16">
          <mxGeometry relative="1" as="geometry">
            <mxPoint x="375" y="240" as="targetPoint" />
          </mxGeometry>
        </mxCell>
        <mxCell id="MKG76FOPYPv3-6Rtzddx-16" value="&lt;font color=&quot;#ffffff&quot;&gt;$$\alpha$$&lt;/font&gt;" style="rounded=1;whiteSpace=wrap;html=1;fillColor=#ffcc99;strokeColor=#36393d;fontSize=14;arcSize=0;" vertex="1" parent="1">
          <mxGeometry x="360" y="200" width="30" height="20" as="geometry" />
        </mxCell>
        <mxCell id="MKG76FOPYPv3-6Rtzddx-24" value="" style="endArrow=classic;html=1;rounded=0;entryX=0;entryY=0.5;entryDx=0;entryDy=0;" edge="1" parent="1" target="MKG76FOPYPv3-6Rtzddx-3">
          <mxGeometry width="50" height="50" relative="1" as="geometry">
            <mxPoint x="250" y="240" as="sourcePoint" />
            <mxPoint x="290" y="290" as="targetPoint" />
            <Array as="points">
              <mxPoint x="250" y="160" />
            </Array>
          </mxGeometry>
        </mxCell>
        <mxCell id="MKG76FOPYPv3-6Rtzddx-25" value="" style="endArrow=classic;html=1;rounded=0;entryX=0;entryY=0.5;entryDx=0;entryDy=0;" edge="1" parent="1" target="MKG76FOPYPv3-6Rtzddx-5">
          <mxGeometry width="50" height="50" relative="1" as="geometry">
            <mxPoint x="400" y="240" as="sourcePoint" />
            <mxPoint x="480" y="260" as="targetPoint" />
            <Array as="points">
              <mxPoint x="400" y="160" />
            </Array>
          </mxGeometry>
        </mxCell>
        <mxCell id="MKG76FOPYPv3-6Rtzddx-27" value="&lt;font style=&quot;font-size: 14px;&quot;&gt;RRFDB:Residual of Receptive Field Dense Block&lt;/font&gt;" style="text;html=1;strokeColor=#7EA6E0;fillColor=none;align=center;verticalAlign=middle;whiteSpace=wrap;rounded=0;dashed=1;labelBackgroundColor=none;" vertex="1" parent="1">
          <mxGeometry x="165" y="90" width="310" height="30" as="geometry" />
        </mxCell>
        <mxCell id="MKG76FOPYPv3-6Rtzddx-29" value="R&lt;br style=&quot;font-size: 14px;&quot;&gt;F&lt;br style=&quot;font-size: 14px;&quot;&gt;B" style="rounded=0;whiteSpace=wrap;html=1;fillColor=#e1d5e7;strokeColor=#9673a6;fontSize=14;" vertex="1" parent="1">
          <mxGeometry x="80" y="360" width="30" height="120" as="geometry" />
        </mxCell>
        <mxCell id="MKG76FOPYPv3-6Rtzddx-40" style="edgeStyle=orthogonalEdgeStyle;rounded=0;orthogonalLoop=1;jettySize=auto;html=1;entryX=0;entryY=0.5;entryDx=0;entryDy=0;fontSize=14;" edge="1" parent="1" source="MKG76FOPYPv3-6Rtzddx-30" target="MKG76FOPYPv3-6Rtzddx-31">
          <mxGeometry relative="1" as="geometry" />
        </mxCell>
        <mxCell id="MKG76FOPYPv3-6Rtzddx-30" value="L&lt;br&gt;R&lt;br&gt;e&lt;br&gt;L&lt;br&gt;u" style="rounded=0;whiteSpace=wrap;html=1;fillColor=#cdeb8b;strokeColor=#36393d;fontSize=14;" vertex="1" parent="1">
          <mxGeometry x="110" y="360" width="30" height="120" as="geometry" />
        </mxCell>
        <mxCell id="MKG76FOPYPv3-6Rtzddx-31" value="R&lt;br style=&quot;font-size: 14px;&quot;&gt;F&lt;br style=&quot;font-size: 14px;&quot;&gt;B" style="rounded=0;whiteSpace=wrap;html=1;fillColor=#e1d5e7;strokeColor=#9673a6;fontSize=14;" vertex="1" parent="1">
          <mxGeometry x="190" y="360" width="30" height="120" as="geometry" />
        </mxCell>
        <mxCell id="MKG76FOPYPv3-6Rtzddx-41" style="edgeStyle=orthogonalEdgeStyle;rounded=0;orthogonalLoop=1;jettySize=auto;html=1;entryX=0;entryY=0.5;entryDx=0;entryDy=0;fontSize=14;" edge="1" parent="1" source="MKG76FOPYPv3-6Rtzddx-32" target="MKG76FOPYPv3-6Rtzddx-33">
          <mxGeometry relative="1" as="geometry" />
        </mxCell>
        <mxCell id="MKG76FOPYPv3-6Rtzddx-32" value="L&lt;br&gt;R&lt;br&gt;e&lt;br&gt;L&lt;br&gt;u" style="rounded=0;whiteSpace=wrap;html=1;fillColor=#cdeb8b;strokeColor=#36393d;fontSize=14;" vertex="1" parent="1">
          <mxGeometry x="220" y="360" width="30" height="120" as="geometry" />
        </mxCell>
        <mxCell id="MKG76FOPYPv3-6Rtzddx-33" value="R&lt;br style=&quot;font-size: 14px;&quot;&gt;F&lt;br style=&quot;font-size: 14px;&quot;&gt;B" style="rounded=0;whiteSpace=wrap;html=1;fillColor=#e1d5e7;strokeColor=#9673a6;fontSize=14;" vertex="1" parent="1">
          <mxGeometry x="300" y="360" width="30" height="120" as="geometry" />
        </mxCell>
        <mxCell id="MKG76FOPYPv3-6Rtzddx-42" style="edgeStyle=orthogonalEdgeStyle;rounded=0;orthogonalLoop=1;jettySize=auto;html=1;entryX=0;entryY=0.5;entryDx=0;entryDy=0;fontSize=14;" edge="1" parent="1" source="MKG76FOPYPv3-6Rtzddx-34" target="MKG76FOPYPv3-6Rtzddx-35">
          <mxGeometry relative="1" as="geometry" />
        </mxCell>
        <mxCell id="MKG76FOPYPv3-6Rtzddx-34" value="L&lt;br&gt;R&lt;br&gt;e&lt;br&gt;L&lt;br&gt;u" style="rounded=0;whiteSpace=wrap;html=1;fillColor=#cdeb8b;strokeColor=#36393d;fontSize=14;" vertex="1" parent="1">
          <mxGeometry x="330" y="360" width="30" height="120" as="geometry" />
        </mxCell>
        <mxCell id="MKG76FOPYPv3-6Rtzddx-35" value="R&lt;br style=&quot;font-size: 14px;&quot;&gt;F&lt;br style=&quot;font-size: 14px;&quot;&gt;B" style="rounded=0;whiteSpace=wrap;html=1;fillColor=#e1d5e7;strokeColor=#9673a6;fontSize=14;" vertex="1" parent="1">
          <mxGeometry x="420" y="360" width="30" height="120" as="geometry" />
        </mxCell>
        <mxCell id="MKG76FOPYPv3-6Rtzddx-43" style="edgeStyle=orthogonalEdgeStyle;rounded=0;orthogonalLoop=1;jettySize=auto;html=1;entryX=0;entryY=0.5;entryDx=0;entryDy=0;fontSize=14;" edge="1" parent="1" source="MKG76FOPYPv3-6Rtzddx-36" target="MKG76FOPYPv3-6Rtzddx-37">
          <mxGeometry relative="1" as="geometry" />
        </mxCell>
        <mxCell id="MKG76FOPYPv3-6Rtzddx-36" value="L&lt;br&gt;R&lt;br&gt;e&lt;br&gt;L&lt;br&gt;u" style="rounded=0;whiteSpace=wrap;html=1;fillColor=#cdeb8b;strokeColor=#36393d;fontSize=14;" vertex="1" parent="1">
          <mxGeometry x="450" y="360" width="30" height="120" as="geometry" />
        </mxCell>
        <mxCell id="MKG76FOPYPv3-6Rtzddx-37" value="R&lt;br style=&quot;font-size: 14px;&quot;&gt;F&lt;br style=&quot;font-size: 14px;&quot;&gt;B" style="rounded=0;whiteSpace=wrap;html=1;fillColor=#e1d5e7;strokeColor=#9673a6;fontSize=14;" vertex="1" parent="1">
          <mxGeometry x="540" y="360" width="30" height="120" as="geometry" />
        </mxCell>
      </root>
    </mxGraphModel>
  </diagram>
</mxfile>
